<?xml version="1.0" encoding="UTF-8"?><svg id="Layer_1" xmlns="http://www.w3.org/2000/svg" xmlns:xlink="http://www.w3.org/1999/xlink" viewBox="0 0 268.33 49.51"><defs><style>.cls-1{fill:none;}.cls-2{clip-path:url(#clippath);}.cls-3{fill:#fff;}</style><clipPath id="clippath"><rect class="cls-1" width="268.33" height="49.51"/></clipPath></defs><polygon class="cls-3" points="61.11 14.03 56.76 14.03 56.76 12.39 67.37 12.39 67.37 14.03 63.02 14.03 63.02 22.14 61.11 22.14 61.11 14.03"/><g class="cls-2"><path class="cls-3" d="M68.11,17.34c0-.67,.1-1.32,.3-1.94s.53-1.17,.99-1.65c.46-.48,1.06-.87,1.8-1.16s1.64-.44,2.71-.44,1.98,.15,2.71,.44,1.34,.68,1.8,1.16c.46,.48,.79,1.03,.99,1.65,.2,.62,.3,1.27,.3,1.94,0,.51-.09,1.06-.26,1.64-.17,.59-.48,1.13-.91,1.63-.43,.5-1.03,.93-1.78,1.26-.75,.33-1.7,.5-2.85,.5s-2.11-.17-2.86-.5c-.75-.34-1.34-.76-1.78-1.26-.43-.5-.74-1.05-.91-1.63-.17-.58-.26-1.13-.26-1.64m5.8,3.4c.45,0,.91-.05,1.38-.16,.46-.11,.88-.29,1.25-.56,.37-.27,.67-.63,.91-1.08,.24-.45,.36-1.02,.36-1.71,0-.59-.1-1.1-.3-1.53-.2-.43-.47-.79-.82-1.07-.35-.29-.76-.5-1.24-.64-.48-.14-.99-.21-1.55-.21s-1.07,.07-1.55,.21c-.48,.14-.89,.35-1.24,.64-.35,.29-.62,.64-.82,1.07-.2,.43-.29,.94-.29,1.53,0,.69,.12,1.26,.36,1.71,.24,.45,.54,.81,.91,1.08,.37,.27,.79,.46,1.25,.56,.46,.11,.92,.16,1.38,.16"/><path class="cls-3" d="M91.9,18.66c-.03,.18-.08,.4-.15,.65-.08,.26-.19,.52-.35,.8-.16,.28-.36,.55-.61,.82-.25,.27-.57,.51-.96,.72-.39,.21-.87,.39-1.42,.52-.55,.13-1.2,.2-1.94,.2s-1.49-.11-2.16-.32c-.67-.21-1.25-.54-1.75-.98-.49-.44-.89-.99-1.17-1.65-.29-.66-.43-1.43-.43-2.32,0-.71,.11-1.36,.34-1.97,.23-.61,.57-1.13,1.04-1.57,.46-.44,1.05-.79,1.76-1.04,.71-.25,1.55-.38,2.51-.38,.72,0,1.35,.07,1.88,.21,.53,.14,.98,.33,1.35,.54,.37,.22,.67,.46,.91,.72,.24,.26,.42,.52,.56,.77s.24,.47,.3,.67c.06,.2,.11,.34,.14,.43h-1.9c-.03-.08-.1-.22-.21-.41-.12-.19-.3-.38-.54-.58-.24-.19-.56-.36-.94-.51-.39-.15-.87-.22-1.44-.22-.67,0-1.25,.09-1.73,.27-.48,.18-.88,.43-1.19,.74-.31,.32-.54,.69-.68,1.12-.15,.43-.22,.9-.22,1.41,0,.56,.1,1.06,.29,1.48,.19,.42,.45,.78,.78,1.06,.33,.29,.72,.5,1.17,.65,.45,.15,.94,.22,1.47,.22,.55,0,1.03-.07,1.44-.22,.41-.15,.75-.33,1.02-.54,.27-.21,.49-.43,.64-.68,.15-.24,.25-.46,.3-.64h1.9Z"/><path class="cls-3" d="M93.21,17.34c0-.67,.1-1.32,.3-1.94s.53-1.17,.99-1.65c.46-.48,1.06-.87,1.8-1.16s1.64-.44,2.71-.44,1.98,.15,2.71,.44,1.34,.68,1.8,1.16c.46,.48,.79,1.03,.99,1.65,.2,.62,.3,1.27,.3,1.94,0,.51-.09,1.06-.26,1.64-.17,.59-.48,1.13-.91,1.63-.43,.5-1.03,.93-1.78,1.26-.75,.33-1.7,.5-2.85,.5s-2.11-.17-2.86-.5c-.75-.34-1.34-.76-1.78-1.26-.43-.5-.74-1.05-.91-1.63-.17-.58-.26-1.13-.26-1.64m5.8,3.4c.45,0,.91-.05,1.38-.16,.46-.11,.88-.29,1.25-.56,.37-.27,.67-.63,.91-1.08,.24-.45,.36-1.02,.36-1.71,0-.59-.1-1.1-.3-1.53-.2-.43-.47-.79-.82-1.07-.35-.29-.76-.5-1.24-.64-.48-.14-.99-.21-1.55-.21s-1.07,.07-1.55,.21c-.48,.14-.89,.35-1.24,.64-.35,.29-.62,.64-.82,1.07-.2,.43-.29,.94-.29,1.53,0,.69,.12,1.26,.36,1.71,.24,.45,.54,.81,.91,1.08,.37,.27,.79,.46,1.25,.56,.46,.11,.92,.16,1.38,.16"/><path class="cls-3" d="M114.35,15.35c-.08-.21-.19-.42-.34-.62-.15-.2-.35-.37-.62-.52-.26-.15-.59-.27-.99-.36-.4-.09-.89-.13-1.47-.13-.32,0-.64,.02-.94,.07-.31,.05-.59,.11-.83,.21-.25,.09-.44,.22-.59,.38-.15,.16-.22,.35-.22,.57,0,.11,.02,.21,.07,.32,.05,.1,.14,.2,.3,.3,.15,.1,.37,.19,.66,.27,.29,.08,.68,.15,1.16,.21l2.3,.35c.55,.08,1.03,.2,1.46,.35,.43,.15,.79,.34,1.09,.57,.3,.23,.53,.5,.68,.81,.16,.31,.23,.67,.23,1.09,0,.58-.13,1.07-.38,1.47-.26,.4-.6,.72-1.04,.98-.44,.25-.95,.44-1.53,.55-.58,.11-1.2,.17-1.85,.17-1.05,0-1.9-.11-2.58-.34-.68-.22-1.21-.49-1.62-.79-.4-.3-.7-.61-.88-.93-.18-.31-.3-.56-.36-.75l1.84-.58c.09,.18,.21,.37,.36,.57,.15,.2,.36,.39,.63,.56,.27,.17,.62,.32,1.05,.44,.43,.12,.96,.17,1.61,.17,.39,0,.75-.03,1.1-.09,.35-.06,.65-.15,.9-.27,.26-.12,.46-.26,.61-.42,.15-.16,.23-.35,.23-.57,0-.63-.7-1.04-2.12-1.22l-2.33-.32c-1.13-.15-2-.46-2.61-.94-.6-.47-.9-1.08-.9-1.84,0-.48,.09-.89,.28-1.23,.19-.33,.43-.61,.72-.83,.29-.22,.62-.39,.98-.5,.36-.11,.71-.2,1.05-.26,.33-.05,.64-.08,.91-.09,.27,0,.47-.01,.6-.01,1.05,0,1.89,.11,2.54,.32,.65,.21,1.15,.46,1.52,.74,.37,.29,.62,.57,.78,.86,.15,.29,.26,.52,.32,.69l-1.8,.59Z"/><path class="cls-3" d="M126.56,12.39h2.17l4.73,9.74h-2.01l-1.02-2.24h-5.62l-1.03,2.24h-2.02l4.8-9.74Zm3.12,5.87l-2.04-4.34-2.04,4.34h4.07Z"/><path class="cls-3" d="M134.99,12.39h5.86c.57,0,1.1,.04,1.59,.12,.49,.08,.91,.23,1.26,.44,.35,.21,.63,.51,.82,.89,.2,.37,.3,.86,.3,1.46,0,.45-.07,.84-.22,1.19-.15,.35-.35,.64-.6,.89-.25,.24-.54,.43-.87,.56-.33,.13-.68,.21-1.03,.23l2.99,3.97h-2.35l-2.83-3.83h-3.02v3.83h-1.9V12.39Zm5.58,4.33c.38,0,.72-.02,1.02-.05,.3-.04,.54-.1,.74-.2,.2-.1,.34-.24,.44-.42,.1-.18,.15-.42,.15-.7s-.05-.52-.15-.7c-.1-.18-.25-.32-.44-.42-.2-.1-.44-.17-.74-.2-.29-.04-.64-.05-1.02-.05h-3.67v2.75h3.67Z"/><polygon class="cls-3" points="147.17 12.39 155.91 12.39 155.91 14.03 149.08 14.03 149.08 16.29 154.96 16.29 154.96 17.93 149.08 17.93 149.08 20.5 156.07 20.5 156.07 22.14 147.17 22.14 147.17 12.39"/><polygon class="cls-3" points="161.57 12.39 163.6 12.39 167.26 20.17 170.99 12.39 173.03 12.39 168.26 22.14 166.27 22.14 161.57 12.39"/><polygon class="cls-3" points="174.68 12.39 183.41 12.39 183.41 14.03 176.58 14.03 176.58 16.29 182.46 16.29 182.46 17.93 176.58 17.93 176.58 20.5 183.58 20.5 183.58 22.14 174.68 22.14 174.68 12.39"/><path class="cls-3" d="M185.36,12.39h5.86c.57,0,1.1,.04,1.59,.12,.49,.08,.91,.23,1.26,.44,.35,.21,.63,.51,.82,.89,.2,.37,.29,.86,.29,1.46,0,.45-.07,.84-.22,1.19-.15,.35-.35,.64-.6,.89-.25,.24-.54,.43-.87,.56-.33,.13-.68,.21-1.03,.23l2.99,3.97h-2.35l-2.83-3.83h-3.02v3.83h-1.9V12.39Zm5.58,4.33c.38,0,.72-.02,1.02-.05,.29-.04,.54-.1,.74-.2,.2-.1,.34-.24,.44-.42,.1-.18,.15-.42,.15-.7s-.05-.52-.15-.7c-.1-.18-.25-.32-.44-.42-.2-.1-.44-.17-.74-.2-.29-.04-.64-.05-1.02-.05h-3.67v2.75h3.67Z"/><rect class="cls-3" x="197.66" y="12.39" width="1.9" height="9.74"/><polygon class="cls-3" points="202.26 12.39 211.22 12.39 211.22 14.03 204.16 14.03 204.16 16.29 210.23 16.29 210.23 17.93 204.16 17.93 204.16 22.14 202.26 22.14 202.26 12.39"/><rect class="cls-3" x="213.07" y="12.39" width="1.9" height="9.74"/><polygon class="cls-3" points="217.67 12.39 226.41 12.39 226.41 14.03 219.57 14.03 219.57 16.29 225.46 16.29 225.46 17.93 219.57 17.93 219.57 20.5 226.57 20.5 226.57 22.14 217.67 22.14 217.67 12.39"/><path class="cls-3" d="M228.37,12.39h4.69c.77,0,1.49,.09,2.16,.26,.68,.17,1.26,.45,1.76,.83,.5,.38,.9,.88,1.19,1.49,.29,.61,.44,1.36,.44,2.23,0,.83-.14,1.56-.4,2.17-.27,.62-.64,1.13-1.12,1.54-.48,.41-1.06,.72-1.73,.92-.67,.2-1.41,.3-2.21,.3h-4.77V12.39Zm3.83,8.11c.81,0,1.5-.06,2.07-.19,.57-.12,1.03-.32,1.39-.59,.36-.27,.62-.61,.79-1.02,.17-.41,.25-.9,.25-1.47s-.08-1.1-.26-1.51c-.17-.41-.43-.73-.8-.98-.36-.25-.83-.43-1.4-.54-.57-.11-1.26-.17-2.05-.17h-1.93v6.47h1.93Z"/><path class="cls-3" d="M245.64,12.39h5.87c.57,0,1.09,.04,1.56,.13,.47,.08,.87,.22,1.21,.42,.33,.2,.59,.45,.78,.77,.18,.32,.27,.71,.27,1.17,0,.31-.03,.58-.1,.79-.07,.22-.15,.4-.26,.56s-.23,.29-.36,.4c-.13,.11-.27,.2-.4,.28,.17,.07,.34,.18,.52,.32,.18,.14,.34,.32,.48,.52s.26,.43,.35,.69c.09,.26,.14,.55,.14,.87,0,.92-.34,1.62-1.02,2.1-.68,.48-1.62,.72-2.81,.72h-6.23V12.39Zm5.99,3.85c.63,0,1.08-.08,1.37-.26,.29-.17,.43-.46,.43-.87s-.14-.71-.43-.88c-.29-.17-.74-.26-1.37-.26h-4.09v2.27h4.09Zm.05,4.32c.3,0,.58-.02,.84-.05,.26-.04,.48-.1,.67-.21,.19-.1,.34-.24,.44-.43,.11-.18,.16-.42,.16-.7,0-.51-.19-.86-.58-1.05s-.9-.29-1.54-.29h-4.14v2.73h4.14Z"/><polygon class="cls-3" points="261.67 18.24 256.91 12.39 259.25 12.39 262.62 16.52 265.99 12.39 268.33 12.39 263.57 18.24 263.57 22.14 261.67 22.14 261.67 18.24"/><polygon class="cls-3" points="61.11 29.01 56.76 29.01 56.76 27.37 67.37 27.37 67.37 29.01 63.02 29.01 63.02 37.11 61.11 37.11 61.11 29.01"/><polygon class="cls-3" points="69.06 27.37 70.97 27.37 70.97 31.23 77.51 31.23 77.51 27.37 79.41 27.37 79.41 37.11 77.51 37.11 77.51 32.92 70.97 32.92 70.97 37.11 69.06 37.11 69.06 27.37"/><polygon class="cls-3" points="81.98 27.37 90.72 27.37 90.72 29.01 83.89 29.01 83.89 31.27 89.77 31.27 89.77 32.91 83.89 32.91 83.89 35.48 90.88 35.48 90.88 37.11 81.98 37.11 81.98 27.37"/><path class="cls-3" d="M108.02,33.64c-.03,.18-.08,.4-.15,.65-.08,.26-.19,.52-.35,.8-.16,.28-.36,.55-.61,.82-.25,.27-.57,.51-.96,.72-.39,.21-.87,.39-1.42,.52-.55,.13-1.2,.2-1.94,.2s-1.49-.11-2.16-.32c-.67-.21-1.25-.54-1.75-.98-.49-.44-.89-.99-1.17-1.65-.29-.66-.43-1.43-.43-2.32,0-.71,.11-1.36,.34-1.97,.23-.61,.57-1.13,1.04-1.57,.46-.44,1.05-.79,1.76-1.04,.71-.25,1.55-.38,2.51-.38,.72,0,1.35,.07,1.88,.21,.53,.14,.98,.32,1.35,.54,.37,.22,.67,.46,.91,.72,.24,.26,.42,.52,.56,.77s.24,.47,.3,.67c.06,.2,.11,.34,.14,.43h-1.9c-.03-.08-.1-.22-.21-.41s-.3-.38-.54-.58c-.24-.19-.56-.36-.94-.51-.39-.15-.87-.22-1.44-.22-.67,0-1.25,.09-1.73,.27-.48,.18-.88,.43-1.19,.74-.31,.32-.54,.69-.68,1.12-.15,.43-.22,.9-.22,1.41,0,.56,.1,1.06,.29,1.48,.19,.42,.45,.78,.78,1.07,.33,.29,.72,.5,1.17,.65,.45,.15,.94,.22,1.47,.22,.55,0,1.03-.07,1.44-.22,.41-.15,.75-.33,1.02-.54,.27-.21,.49-.43,.64-.68,.15-.24,.25-.46,.3-.64h1.9Z"/><path class="cls-3" d="M113.72,27.37h2.17l4.73,9.74h-2.01l-1.02-2.24h-5.62l-1.03,2.24h-2.02l4.8-9.74Zm3.12,5.87l-2.04-4.34-2.04,4.34h4.07Z"/><path class="cls-3" d="M122.15,27.37h5.86c.57,0,1.1,.04,1.59,.12,.49,.08,.91,.23,1.26,.44,.35,.21,.63,.51,.82,.88,.2,.37,.3,.86,.3,1.46,0,.45-.07,.84-.22,1.19-.15,.35-.35,.64-.6,.89-.25,.24-.54,.43-.87,.56-.33,.13-.68,.21-1.03,.23l2.99,3.97h-2.35l-2.83-3.83h-3.02v3.83h-1.9v-9.74Zm5.58,4.33c.38,0,.72-.02,1.02-.05,.3-.04,.54-.1,.74-.2,.2-.1,.34-.24,.44-.42,.1-.18,.15-.42,.15-.7s-.05-.52-.15-.7c-.1-.18-.25-.32-.44-.42-.2-.1-.44-.16-.74-.2-.29-.04-.64-.05-1.02-.05h-3.67v2.75h3.67Z"/><path class="cls-3" d="M134.33,27.37h5.87c.57,0,1.09,.04,1.56,.13,.47,.08,.87,.23,1.21,.42,.33,.2,.6,.45,.78,.77,.18,.32,.27,.71,.27,1.17,0,.31-.03,.58-.1,.79-.07,.22-.15,.4-.26,.56-.11,.16-.23,.29-.36,.4-.13,.11-.27,.2-.4,.28,.17,.07,.34,.18,.52,.32,.18,.14,.34,.32,.48,.52,.14,.2,.26,.43,.35,.69,.09,.26,.14,.55,.14,.87,0,.92-.34,1.62-1.03,2.1-.68,.48-1.62,.72-2.81,.72h-6.23v-9.74Zm5.99,3.85c.63,0,1.08-.08,1.37-.26,.29-.17,.43-.46,.43-.87s-.14-.71-.43-.88c-.29-.17-.74-.26-1.37-.26h-4.09v2.26h4.09Zm.05,4.32c.3,0,.58-.02,.84-.05,.26-.04,.48-.1,.67-.21,.19-.1,.34-.24,.44-.43,.11-.18,.16-.42,.16-.7,0-.51-.19-.86-.58-1.05-.39-.19-.9-.29-1.54-.29h-4.14v2.73h4.14Z"/><path class="cls-3" d="M145.89,32.32c0-.67,.1-1.32,.3-1.94s.53-1.17,.99-1.65c.46-.48,1.06-.87,1.8-1.16,.74-.29,1.64-.44,2.72-.44s1.98,.15,2.71,.44c.74,.29,1.34,.68,1.8,1.16,.46,.48,.79,1.03,.99,1.65,.2,.62,.3,1.27,.3,1.94,0,.51-.09,1.06-.26,1.64-.17,.59-.48,1.13-.91,1.63-.43,.5-1.02,.93-1.77,1.26-.75,.33-1.7,.5-2.85,.5s-2.11-.17-2.86-.5c-.75-.34-1.34-.76-1.78-1.26-.43-.5-.74-1.05-.91-1.63-.17-.58-.26-1.13-.26-1.64m5.8,3.4c.45,0,.91-.05,1.38-.16,.46-.11,.88-.29,1.25-.56,.37-.27,.67-.63,.91-1.08,.24-.45,.36-1.02,.36-1.71,0-.59-.1-1.1-.3-1.53-.2-.43-.47-.79-.82-1.07-.35-.29-.76-.5-1.24-.64-.48-.14-.99-.21-1.55-.21s-1.07,.07-1.55,.21c-.48,.14-.89,.35-1.24,.64-.35,.29-.62,.64-.82,1.07-.2,.43-.29,.94-.29,1.53,0,.69,.12,1.26,.36,1.71,.24,.45,.54,.81,.91,1.08,.37,.27,.79,.46,1.25,.56,.46,.11,.92,.16,1.38,.16"/><polygon class="cls-3" points="159.44 27.37 161.45 27.37 167.96 34.41 167.96 27.37 169.78 27.37 169.78 37.11 168.04 37.11 161.26 29.82 161.26 37.11 159.44 37.11 159.44 27.37"/><path class="cls-3" d="M177.46,27.37h5.86c.57,0,1.1,.04,1.59,.12,.49,.08,.91,.23,1.26,.44s.63,.51,.82,.88c.2,.37,.3,.86,.3,1.46,0,.45-.07,.84-.22,1.19-.15,.35-.35,.64-.6,.89-.25,.24-.54,.43-.87,.56-.33,.13-.67,.21-1.03,.23l2.99,3.97h-2.35l-2.83-3.83h-3.02v3.83h-1.9v-9.74Zm5.58,4.33c.38,0,.72-.02,1.02-.05,.3-.04,.54-.1,.74-.2,.2-.1,.34-.24,.44-.42,.1-.18,.15-.42,.15-.7s-.05-.52-.15-.7c-.1-.18-.25-.32-.44-.42-.2-.1-.44-.16-.74-.2-.29-.04-.64-.05-1.02-.05h-3.67v2.75h3.67Z"/><polygon class="cls-3" points="189.65 27.37 198.38 27.37 198.38 29.01 191.55 29.01 191.55 31.27 197.43 31.27 197.43 32.91 191.55 32.91 191.55 35.48 198.55 35.48 198.55 37.11 189.65 37.11 189.65 27.37"/><path class="cls-3" d="M207.93,30.33c-.08-.21-.19-.42-.34-.62-.15-.2-.35-.37-.62-.51-.26-.15-.59-.27-.99-.36-.4-.09-.89-.13-1.47-.13-.32,0-.64,.02-.94,.07-.31,.04-.59,.11-.83,.21-.25,.09-.44,.22-.59,.38-.15,.16-.22,.35-.22,.57,0,.11,.02,.21,.07,.32,.05,.1,.14,.2,.3,.3,.15,.1,.37,.19,.66,.27,.29,.08,.68,.15,1.16,.21l2.3,.35c.55,.08,1.03,.2,1.46,.35,.43,.15,.79,.34,1.09,.57,.3,.23,.53,.5,.68,.81,.16,.31,.23,.68,.23,1.09,0,.58-.13,1.07-.38,1.47-.26,.4-.6,.72-1.04,.98-.44,.25-.95,.44-1.53,.55-.58,.11-1.2,.17-1.85,.17-1.05,0-1.9-.11-2.58-.34-.67-.22-1.21-.49-1.61-.79-.4-.3-.7-.61-.88-.93-.18-.31-.3-.56-.36-.75l1.84-.58c.09,.18,.21,.37,.36,.57,.15,.2,.36,.39,.63,.56,.27,.17,.62,.32,1.05,.44,.43,.12,.96,.17,1.61,.17,.38,0,.75-.03,1.1-.09,.35-.06,.65-.15,.9-.27,.26-.12,.46-.26,.61-.42,.15-.16,.23-.36,.23-.57,0-.63-.71-1.04-2.12-1.22l-2.33-.32c-1.13-.15-2-.46-2.61-.94-.6-.47-.9-1.08-.9-1.84,0-.48,.09-.89,.28-1.23,.19-.33,.43-.61,.72-.83,.29-.22,.62-.39,.98-.5,.36-.11,.71-.2,1.05-.25,.33-.05,.64-.08,.91-.09,.27,0,.47-.01,.6-.01,1.05,0,1.89,.11,2.54,.32,.65,.21,1.15,.46,1.52,.74,.37,.29,.62,.57,.78,.86,.15,.29,.26,.52,.32,.69l-1.8,.59Z"/><polygon class="cls-3" points="211.77 27.37 220.51 27.37 220.51 29.01 213.68 29.01 213.68 31.27 219.56 31.27 219.56 32.91 213.68 32.91 213.68 35.48 220.67 35.48 220.67 37.11 211.77 37.11 211.77 27.37"/><path class="cls-3" d="M222.47,27.37h5.86c.57,0,1.1,.04,1.59,.12,.49,.08,.91,.23,1.26,.44s.63,.51,.82,.88c.2,.37,.3,.86,.3,1.46,0,.45-.07,.84-.22,1.19-.15,.35-.35,.64-.6,.89-.25,.24-.54,.43-.87,.56-.33,.13-.67,.21-1.03,.23l2.99,3.97h-2.35l-2.83-3.83h-3.02v3.83h-1.9v-9.74Zm5.58,4.33c.38,0,.72-.02,1.02-.05,.3-.04,.54-.1,.74-.2,.2-.1,.34-.24,.44-.42,.1-.18,.15-.42,.15-.7s-.05-.52-.15-.7c-.1-.18-.25-.32-.44-.42-.2-.1-.44-.16-.74-.2-.29-.04-.64-.05-1.02-.05h-3.67v2.75h3.67Z"/><polygon class="cls-3" points="233.73 27.37 235.76 27.37 239.42 35.14 243.15 27.37 245.19 27.37 240.42 37.11 238.43 37.11 233.73 27.37"/><polygon class="cls-3" points="246.84 27.37 255.57 27.37 255.57 29.01 248.74 29.01 248.74 31.27 254.62 31.27 254.62 32.91 248.74 32.91 248.74 35.48 255.74 35.48 255.74 37.11 246.84 37.11 246.84 27.37"/><path class="cls-3" d="M24.43,19.06c-3.13,0-5.66,2.55-5.66,5.7s2.54,5.7,5.66,5.7,5.66-2.55,5.66-5.7-2.54-5.7-5.66-5.7m.19-8.29c-7.67,0-13.9,6.27-13.9,13.98,0,2.71,.77,5.23,2.1,7.37-.96,1.26-.88,3.07,.27,4.23,1.25,1.26,3.27,1.26,4.52,0,1.25-1.26,1.25-3.29,0-4.54-.96-.96-2.37-1.18-3.54-.67-1.12-1.87-1.77-4.05-1.77-6.39,0-6.83,5.53-12.4,12.33-12.4,1.73,0,3.38,.36,4.87,1.01,.23-.49,.53-.93,.91-1.33-1.76-.81-3.72-1.27-5.79-1.27M1.58,24.75C1.58,11.98,11.91,1.59,24.61,1.59c5.26,0,10.11,1.78,13.99,4.78-.6,1.21-.41,2.71,.59,3.72,1.25,1.26,3.27,1.26,4.52,0,1.25-1.26,1.25-3.29,0-4.54-1.11-1.11-2.83-1.24-4.07-.37C35.49,1.93,30.27,0,24.61,0,11.04,0,0,11.1,0,24.75,0,29.82,1.52,34.54,4.13,38.47c.07-.07,.13-.15,.2-.22,.31-.32,.66-.58,1.03-.79-2.39-3.65-3.79-8.02-3.79-12.71m34.84-7.37c.96-1.26,.88-3.07-.27-4.23-1.25-1.26-3.27-1.26-4.52,0-1.25,1.26-1.25,3.29,0,4.54,.96,.96,2.37,1.18,3.54,.67,1.12,1.87,1.77,4.05,1.77,6.39,0,6.84-5.53,12.4-12.33,12.4-1.73,0-3.38-.36-4.87-1.01-.22,.49-.53,.94-.91,1.33,1.76,.82,3.72,1.27,5.79,1.27,7.67,0,13.91-6.27,13.91-13.98,0-2.71-.77-5.23-2.1-7.37M24.61,5.19c-3.61,0-7,1-9.9,2.73,.07,.07,.14,.13,.21,.2,.31,.32,.58,.67,.79,1.05,2.62-1.52,5.66-2.39,8.89-2.39,9.86,0,17.88,8.07,17.88,17.98,0,3.87-1.22,7.45-3.29,10.38-1.19-.57-2.66-.37-3.64,.62-1.25,1.25-1.25,3.29,0,4.54,1.25,1.25,3.27,1.25,4.52,0,1.12-1.13,1.23-2.89,.34-4.14,2.3-3.21,3.66-7.15,3.66-11.41,0-10.79-8.73-19.57-19.46-19.57m0,39.13c3.61,0,6.99-.99,9.89-2.73-.04-.04-.08-.08-.12-.12-.34-.34-.63-.73-.85-1.15-2.63,1.53-5.67,2.4-8.92,2.4-9.86,0-17.88-8.07-17.88-17.98,0-3.85,1.21-7.42,3.27-10.35,1.21,.64,2.74,.45,3.75-.57,1.25-1.26,1.25-3.29,0-4.54-1.25-1.26-3.27-1.26-4.52,0-1.09,1.1-1.23,2.79-.41,4.04-2.31,3.22-3.67,7.16-3.67,11.42,0,10.79,8.73,19.57,19.46,19.57M44.89,11.26c-.31,.31-.66,.57-1.02,.79,2.39,3.65,3.78,8.02,3.78,12.71,0,12.77-10.33,23.16-23.04,23.16-5.26,0-10.11-1.78-14-4.78,.6-1.2,.4-2.71-.6-3.71-1.25-1.25-3.27-1.25-4.52,0-1.25,1.25-1.25,3.29,0,4.54,1.11,1.12,2.83,1.24,4.08,.37,4.16,3.24,9.37,5.17,15.03,5.17,13.57,0,24.61-11.1,24.61-24.75,0-5.07-1.52-9.78-4.13-13.71-.07,.08-.14,.15-.21,.22"/></g></svg>